<?xml version="1.0" standalone="no"?>
<!DOCTYPE svg PUBLIC "-//W3C//DTD SVG 1.1//EN" "http://www.w3.org/Graphics/SVG/1.1/DTD/svg11.dtd">
<svg xmlns="http://www.w3.org/2000/svg">
<metadata>Generated by Fontastic.me</metadata>
<defs>
<font id="all-icons" horiz-adv-x="512">
<font-face font-family="all-icons" units-per-em="512" ascent="480" descent="-32"/>
<missing-glyph horiz-adv-x="512" />

<glyph unicode="&#97;" d="M192 213c57 0 171-28 171-85l0-43-342 0 0 43c0 57 114 85 171 85m0 43c-47 0-85 38-85 85 0 47 38 86 85 86 47 0 85-39 85-86 0-47-38-85-85-85m213-27l-52-32 14 60-47 40 62 5 23 57 24-57 62-5-47-40 15-60z"/>
<glyph unicode="&#98;" d="M277 320l0 117 118-117m-267 149c-24 0-43-19-43-42l0-342c0-23 19-42 43-42l256 0c24 0 43 19 43 42l0 256-128 128z"/>
<glyph unicode="&#100;" d="M288 363c77 0 139-62 139-139 0-77-62-139-139-139l-75 0 0 43 75 0c53 0 96 43 96 96 0 53-43 96-96 96l-121 0 66-66-30-30-118 117 118 118 30-30-66-66 121 0m-160-235l43 0 0-43-43 0z"/>
<glyph unicode="&#101;" d="M213 149l-85 86 30 30 55-55 141 140 30-30m-128 171l-192-86 0-128c0-118 82-229 192-256 110 27 192 138 192 256l0 128z"/>
<glyph unicode="&#99;" d="M299 149l-150 0 0 43 150 0m64 43l-214 0 0 42 214 0m0 43l-214 0 0 43 214 0m42 85l-298 0c-24 0-43-19-43-43l0-298c0-24 19-43 43-43l298 0c24 0 43 19 43 43l0 298c0 24-19 43-43 43z"/>
<glyph unicode="&#102;" d="M299 384l-86 0 0 43 86 0m128-43l-86 0 0 43-42 42-86 0-42-42 0-43-86 0c-23 0-42-19-42-43l0-234c0-24 19-43 42-43l342 0c23 0 42 19 42 43l0 234c0 24-19 43-42 43z"/>
<glyph unicode="&#103;" d="M299 213l-150 0 0-42 150 0m106-64l-298 0 0 234 298 0m0 107l-21 0 0 43-43 0 0-43-170 0 0 43-43 0 0-43-21 0c-24 0-43-19-43-43l0-298c0-24 19-43 43-43l298 0c24 0 43 19 43 43l0 298c0 24-19 43-43 43m-42-149l-214 0 0-43 214 0z"/>
<glyph unicode="&#104;" d="M277 320l118 0-118 117 0-117m-149 149l171 0 128-128 0-256c0-23-19-42-43-42l-256 0c-24 0-43 19-43 42l0 342c0 23 19 42 43 42m0-384l256 0 0 171-85-85-43 42-128-128m43 235c-24 0-43-19-43-43 0-23 19-42 43-42 23 0 42 19 42 42 0 24-19 43-42 43z"/>
<glyph unicode="&#105;" d="M448 160c0-8-4-15-11-19l-169-94c-3-3-8-4-12-4-4 0-9 1-12 4l-169 94c-7 4-11 11-11 19l0 192c0 8 4 15 11 19l169 94c3 3 8 4 12 4 4 0 9-1 12-4l169-94c7-4 11-11 11-19z"/>
<glyph unicode="&#106;" d="M277 448l0-128 171 0 0 128m-171-384l171 0 0 213-171 0m-213-213l171 0 0 128-171 0m0 43l171 0 0 213-171 0z"/>
<glyph unicode="&#107;" d="M128 107c-59 0-107 47-107 106 0 59 48 107 107 107 21 50 70 85 128 85 73 0 133-56 139-128l10 0c47 0 86-38 86-85 0-47-39-85-86-85l-277 0m277 128l-42 0 0 21c0 59-48 107-107 107-53 0-97-39-105-90-7 3-15 4-23 4-35 0-64-28-64-64 0-35 29-64 64-64l277 0c24 0 43 19 43 43 0 24-19 43-43 43z"/>
<glyph unicode="&#108;" d="M226 226c9-8 9-22 0-30-8-9-22-9-30 0-42 41-42 109 0 150l75 76c42 42 109 42 151 0 42-42 42-109 0-151l-32-32c0 18-2 35-8 52l10 10c25 25 25 66 0 91-25 25-66 25-91 0l-75-76c-25-25-25-65 0-90m60 90c8 9 22 9 30 0 42-41 42-109 0-150l-75-76c-42-42-109-42-151 0-42 42-42 109 0 151l32 32c0-18 2-35 8-52l-10-10c-25-25-25-66 0-91 25-25 66-25 91 0l75 76c25 25 25 65 0 90-9 8-9 22 0 30z"/>
<glyph unicode="&#109;" d="M512 256c0-141-115-256-256-256-141 0-256 115-256 256 0 141 115 256 256 256 141 0 256-115 256-256z m-96 137l-79-218-81 148-100-188 132-133c40 5 78 20 110 41 4 3 8 5 11 8 2 1 4 3 6 4 47 38 81 92 92 153 1 2 1 4 1 6 1 6 2 11 3 17 1 9 1 17 1 25 0 15-2 30-4 45z m-258 1l21-219 60 135-81 83m121 1l22-219 60 135-82 83m-183 0l61 0 32-168 1 0 44 168 45 0 44-167 1 0 31 167 61 0-59-258-57 0-43 159-1 0-44-159-56 0z"/>
<glyph unicode="&#110;" d="M482 7l-451 0c-17 0-31 15-31 36l0 436c0 13 14 26 31 26l24 0c0 0 0 0 0-1l0-60c0-17 14-36 31-36l39 0c17 0 27 19 27 36l0 60c0 1 0 1 0 1l205 0c0 0 3 0 3-1l0-60c0-17 10-36 27-36l42 0c17 0 28 19 28 36l0 60c0 1 0 1 0 1l25 0c17 0 30-13 30-30l0-436c0-17-13-32-30-32z m-330 319l-97 0 0-98 97 0z m0-152l-97 0 0-98 97 0z m152 152l-96 0 0-98 96 0z m0-152l-96 0 0-98 96 0z m153 152l-97 0 0-98 97 0z m0-152l-97 0 0-98 97 0z"/>
<glyph unicode="&#111;" d="M427 256c0-94-77-171-171-171-94 0-171 77-171 171 0 94 77 171 171 171 16 0 32-3 47-7l33 34c-24 10-51 15-80 15-118 0-213-95-213-213 0-118 95-213 213-213 118 0 213 95 213 213m-300 41l-30-30 96-96 213 213-30 30-183-183z"/>
<glyph unicode="&#112;" d="M512 256c0-141-115-256-256-256-141 0-256 115-256 256 0 141 115 256 256 256 141 0 256-115 256-256z m-371-112l146-142c117 14 210 107 223 224l-140 143 5-215z m68 92l34-41 47 61 60-81-188 0m215-13l0 188c0 15-12 27-27 27l-188 0c-15 0-27-12-27-27l0-188c0-15 12-27 27-27l188 0c15 0 27 12 27 27z"/>
<glyph unicode="&#113;" d="M203 448c76 0 138-62 138-139 0-34-12-66-33-90l6-6 17 0 106-106-32-32-106 106 0 17-6 6c-24-21-56-33-90-33-77 0-139 62-139 138 0 77 62 139 139 139m0-43c-54 0-96-42-96-96 0-53 42-96 96-96 53 0 96 43 96 96 0 54-43 96-96 96z"/>
<glyph unicode="&#114;" d="M427 469c23 0 42-19 42-42l0-256c0-24-19-43-42-43l-299 0-85-85 0 384c0 23 19 42 42 42l342 0m-342-42l0-281 25 25 317 0 0 256-342 0m43-64l256 0 0-43-256 0 0 43m0-86l192 0 0-42-192 0z"/>
<glyph unicode="&#115;" d="M512 256c0-141-115-256-256-256-141 0-256 115-256 256 0 141 115 256 256 256 141 0 256-115 256-256z m-371-112l146-142c117 14 210 107 223 224l-140 143-10-188z m107 126c-3-10-7-20-13-32-3-5-6-10-7-14l1 0c18 7 34 11 45 13-2 1-3 3-5 4-8 7-15 17-21 29m88-51c-3-3-7-4-13-4-10 0-27 3-40 10-23-3-40-6-54-10-1-1-2-1-3-1-16-29-29-42-40-42-2 0-4 1-6 2l-6 4-1 1c-1 2-1 5 0 7 1 7 9 19 25 29 3 2 7 4 12 6 4 7 8 15 13 25 7 13 11 27 15 39l0 0c-5 16-8 26-3 44 1 5 5 11 10 11l3 0c4 0 7-2 9-4 9-9 4-30 0-48 0-1 0-2-1-2 6-15 13-28 22-35 3-2 7-5 12-7 6 0 12 1 17 1 17 0 27-3 31-10 1-2 2-4 1-7 0-4-1-7-3-9m14 158l-188 0c-15 0-27-12-27-27l0-188c0-15 12-27 27-27l188 0c15 0 27 12 27 27l0 188c0 15-12 27-27 27m-20-148c-1 1-7 4-25 4-1 0-2 0-4-1 10-4 20-7 26-7 1 0 2 0 3 0l0 0c1 1 1 1 1 2 0 0 0 1-1 2m-123-20c-3-2-6-3-7-4-9-9-16-18-16-23 6 2 14 11 23 27m40 93l1 0c1 5 1 9 2 12l0 2c2 7 2 11-1 14l-2 1c0 0 0-1-1-1-2-6-2-16 1-28z"/>
<glyph unicode="&#116;" d="M393 354l-30 30-128-128 128-128 30 30-98 98 98 98m-128 0l-30 30-128-128 128-128 30 30-98 98z"/>
<glyph unicode="&#117;" d="M119 354l30 30 128-128-128-128-30 30 98 98-98 98m128 0l30 30 128-128-128-128-30 30 98 98z"/>
<glyph unicode="&#118;" d="M512 256c0-141-115-256-256-256-141 0-256 115-256 256 0 141 115 256 256 256 141 0 256-115 256-256z m-371-112l146-142c117 14 210 107 223 224l-140 143 5-215z m209 233l-188 0c-15 0-27-12-27-27l0-188c0-15 12-27 27-27l188 0c15 0 27 12 27 27l0 188c0 15-12 27-27 27z m-188-27l67 0 0-54-34 17-33-17z m0-175l47 61 34-41 47 61 60-81z"/>
<glyph unicode="&#119;" d="M442 362c8 8 8 22 0 30l-50 50c-8 8-22 8-30 0l-39-39 80-80m-339-179l0-80 80 0 236 236-80 80z"/>
<glyph unicode="&#120;" d="M85 384l0-213 107 0 0 85c0 24 19 43 43 43l106 0c24 0 43-19 43-43l0-85 43 0 0 213-342 0m-85-299l0 43 85 0c-23 0-42 19-42 43l0 213c0 24 19 43 42 43l342 0c23 0 42-19 42-43l0-213c0-24-19-43-42-43l85 0 0-43-128 0c0-23-19-42-43-42l-106 0c-24 0-43 19-43 42l-192 0m245 0c-6 0-10-4-10-10 0-6 4-11 10-11 6 0 11 5 11 11 0 6-5 10-11 10m86 0c-6 0-11-4-11-10 0-6 5-11 11-11 6 0 10 5 10 11 0 6-4 10-10 10m-54 0l0-21 22 0 0 21-22 0m-42 171l0-149 106 0 0 149z"/>
<glyph unicode="&#121;" d="M512 256c0-141-115-256-256-256-141 0-256 115-256 256 0 141 115 256 256 256 141 0 256-115 256-256z m0-2c0 0 0 0 0 1l-143 142-226-258 138-138c3 1 5 1 8 1 4 1 8 1 12 2 5 1 10 2 15 3 0 0 0 0 0 0 10 3 20 6 29 9 85 32 149 108 164 200 1 12 2 24 3 38z m-368-115l76 130-74 128 69 0 42-87 42 87 70 0-74-128 79-130-73 0-44 89-44-89z"/>
<glyph unicode="&#122;" d="M415 228l-42 28 42 28m-143-173l0 77 72 48 58-38m-146 19l-58 39 58 39 58-39m-74-145l-130 87 58 38 72-48m-143 96l42-28-42-28m143 173l0-77-72-48-58 38m162 87l130-87-58-38-72 48m176-7c0 0 0 0 0 0 0 1 0 1-1 2 0 0 0 0 0 1 0 0 0 0 0 1 0 0 0 0-1 0 0 1 0 1 0 2 0 0-1 0-1 0 0 1 0 1 0 1-1 1-1 1-1 1 0 1 0 1-1 1 0 0 0 0 0 1-1 0-1 0-1 0-1 1-1 1-1 1 0 0 0 0 0 0l-176 117c-5 4-13 4-18 0l-176-117c0 0 0 0 0 0 0 0 0 0-1-1 0 0 0 0-1 0 0-1 0-1 0-1-1 0-1 0-1-1 0 0 0 0-1-1 0 0 0 0 0-1 0 0-1 0-1 0 0-1 0-1 0-2-1 0-1 0-1 0 0-1 0-1 0-1 0-1 0-1 0-1-1-1-1-1-1-2 0 0 0 0 0 0 0-1 0-2 0-3l0-116c0-1 0-2 0-3 0 0 0 0 0 0 0-1 0-1 1-2 0 0 0 0 0-1 0 0 0 0 0-1 0 0 0 0 1 0 0-1 0-1 0-2 0 0 1 0 1 0 0-1 0-1 0-1 1-1 1-1 1-1 0 0 0-1 1-1 0 0 0 0 0-1 1 0 1 0 1 0 1-1 1-1 1-1 0 0 0 0 0 0l176-117c3-2 6-3 9-3 3 0 6 1 9 3l176 117c0 0 0 0 0 0 0 0 0 0 1 1 0 0 0 0 1 0 0 1 0 1 0 1 1 0 1 1 1 1 0 0 0 0 1 1 0 0 0 0 0 1 0 0 1 0 1 0 0 1 0 1 0 2 1 0 1 0 1 0 0 1 0 1 0 1 0 1 0 1 0 1 1 1 1 1 1 2 0 0 0 0 0 0 0 1 0 2 0 3l0 116c0 1 0 2 0 3z"/>
<glyph unicode="&#65;" d="M64 107l0 42 299 0-37 38 30 30 89-89-89-89-30 30 37 38-299 0m299 234l0 64-43 0 0-64 43 0m0 107c23 0 42-19 42-43l0-64c0-23-19-42-42-42l-43 0 0-22c0-47-38-85-85-85l-86 0c-47 0-85 38-85 85l0 171z"/>
<glyph unicode="&#66;" d="M512 256c0-141-115-256-256-256-141 0-256 115-256 256 0 141 115 256 256 256 141 0 256-115 256-256z m-2-28l-140 141-22-23-11-144-171-49-21-13 144-138c116 15 208 108 221 226z m-160 149l-188 0c-15 0-27-12-27-27l0-188c0-15 12-27 27-27l50 0 44 38 45-38 49 0c15 0 27 12 27 27l0 188c0 15-12 27-27 27z m-67-81l-27 0 0-27 27 0 0-26-27 0 0-27 27 0 0-27-27 0 0 27-27 0 0 27 27 0 0 26-27 0 0 27 27 0 0 27-27 0 0 27 27 0 0-27 27 0z"/>
<glyph unicode="&#67;" d="M320 171c-71 0-128 0-128 0l0-43 128 0 0-43-128 0 0-85-85 0 0 85-43 0 0 43 43 0 0 384c0 0 128 0 213 0 85 0 128-67 128-171 0-104-57-170-128-170z m-43 256l-85 0 0-171c0 0 41 0 85 0 44 0 86 35 86 85 0 51-43 86-86 86z"/>
<glyph unicode="&#68;" d="M248 491l121-121-46-46-45 46-30-31 50-49-25-25 9-10c20 9 45 6 61-11l-75-75c-17 16-20 41-11 61l-10 9-25-25-49 50-31-30 46-45-46-46-121 121 46 45 45-45 30 30-60 61c-17 16-17 43 0 60l15 15c17 17 44 17 60 0l61-60 30 30-45 45 45 46m136-278c0-47-38-85-85-85l0 43c23 0 42 19 42 42l43 0m85 0c0-94-76-170-170-170l0 42c70 0 128 58 128 128z"/>
<glyph unicode="&#69;" d="M256 512c-141 0-256-115-256-256 0-141 115-256 256-256 141 0 256 115 256 256 0 141-115 256-256 256z m-26-374c0-16-13-29-29-29l-57 0c-16 0-29 13-29 29l0 57c0 16 13 29 29 29l57 0c16 0 29-13 29-29l0-57z m0 166c0-16-13-29-29-29l-57 0c-16 0-29 13-29 29l0 57c0 16 13 29 29 29l57 0c16 0 29-13 29-29l0-57z m167-166c0-16-13-29-29-29l-57 0c-16 0-29 13-29 29l0 57c0 16 13 29 29 29l57 0c16 0 29-13 29-29l0-57z m0 166c0-16-13-29-29-29l-57 0c-16 0-29 13-29 29l0 57c0 16 13 29 29 29l57 0c16 0 29-13 29-29l0-57z m-250 3l51 0 0 51-51 0z m0-166l51 0 0 51-51 0z m167 0l51 0 0 51-51 0z m0 166l51 0 0 51-51 0z"/>
<glyph unicode="&#70;" d="M405 64l-234 0 0 299 234 0m0 42l-234 0c-24 0-43-19-43-42l0-299c0-24 19-43 43-43l234 0c24 0 43 19 43 43l0 299c0 23-19 42-43 42m-64 86l-256 0c-23 0-42-19-42-43l0-299 42 0 0 299 256 0z"/>
<glyph unicode="&#71;" d="M405 427l-74 0-22 21-106 0-22-21-74 0 0-43 298 0m-277-277c0-24 19-43 43-43l170 0c24 0 43 19 43 43l0 256-256 0z"/>
<glyph unicode="&#72;" d="M363 256l0 192c0 12-10 21-22 21l-277 0c-12 0-21-9-21-21l0-299 85 86 213 0c12 0 22 9 22 21m85 128l-43 0 0-192-277 0 0-43c0-11 10-21 21-21l235 0 85-85 0 320c0 11-9 21-21 21z"/>
<glyph unicode="&#73;" d="M484 358l-184 144-184-144 184-146z m-184-296l-151 117-33-25 184-144 184 144-33 26z m0 101l-151 118-33-26 184-144 184 144-33 26z m-290-20l82 0 0 21-61 0 0 82 41 0 0 20-41 0 0 82 61 0 0 21-82 0z"/>
<glyph unicode="&#74;" d="M256 144l132-80-35 150 116 101-153 13-60 141-60-141-153-13 116-101-35-150z"/>
<glyph unicode="&#75;" d="M157 512l-104 0c-29 0-53-24-53-53l0-104c0-29 24-52 53-52l104 0c29 0 52 23 52 52l0 104c0 29-23 53-52 53z m-6-151l-93 0 0 93 93 0z m6-152l-104 0c-29 0-53-23-53-52l0-104c0-29 24-53 53-53l104 0c29 0 52 24 52 53l0 104c0 29-23 52-52 52z m-6-151l-93 0 0 93 93 0z m308 151l-104 0c-29 0-52-23-52-52l0-104c0-29 23-53 52-53l104 0c29 0 53 24 53 53l0 104c0 29-24 52-53 52z m-5-151l-93 0 0 93 93 0z m5 454l-104 0c-29 0-52-24-52-53l0-104c0-29 23-52 52-52l104 0c29 0 53 23 53 52l0 104c0 29-24 53-53 53z m-5-151l-93 0 0 93 93 0z"/>
<glyph unicode="&#76;" d="M448 213l-384 0 0 214 384 0m0 42l-384 0c-24 0-43-19-43-42l0-256c0-24 19-43 43-43l149 0-42-64 0-21 170 0 0 21-42 64 149 0c24 0 43 19 43 43l0 256c0 23-20 42-43 42z"/>
<glyph unicode="&#77;" d="M256 171c24 0 43-19 43-43 0-24-19-43-43-43-24 0-43 19-43 43 0 24 19 43 43 43m0 128c24 0 43-19 43-43 0-24-19-43-43-43-24 0-43 19-43 43 0 24 19 43 43 43m0 128c24 0 43-19 43-43 0-24-19-43-43-43-24 0-43 19-43 43 0 24 19 43 43 43z"/>
<glyph unicode="&#78;" d="M256 184l-80-49 21 92-71 61 94 8 36 86 36-86 94-8-71-61 21-92m133 180l-153 13-60 141-60-141-153-13 116-101-35-150 132 80 132-80-35 150z"/>
<glyph unicode="&#79;" d="M211 460c0 29-18 52-47 52l-112 0c-29 0-52-23-52-52l0-111c0-28 23-48 52-48l112 0c29 0 47 20 47 48z m-60-99l-91 0 0 91 91 0z m60-196c0 29-18 46-47 46l-112 0c-29 0-52-17-52-46l0-111c0-28 23-54 52-54l112 0c29 0 47 26 47 54z m-60-105l-91 0 0 91 91 0z m361 105c0 29-21 46-50 46l-112 0c-29 0-49-17-49-46l0-111c0-28 20-54 49-54l112 0c29 0 50 26 50 54z m-60-105l-91 0 0 91 91 0z m60 400c0 29-21 52-50 52l-112 0c-29 0-49-23-49-52l0-111c0-28 20-48 49-48l112 0c29 0 50 20 50 48z m-60-99l-91 0 0 91 91 0z"/>
</font>
</defs>
</svg>
